<svg xmlns="http://www.w3.org/2000/svg" xml:space="preserve" id="Layer_1" x="0" y="0" style="enable-background:new 0 0 920 1000" version="1.1" viewBox="0 0 920 1000"><style>.st0{fill:#d7153a}.st1{fill:#002664}</style><path d="M435.54 519.85c-70.22-8.64-138.44 13.91-258.48-18.76-12.26-3.34-16.78 9.6-10.15 20.44 32.25 52.74 195.14 11.41 268.95 3.8 3.24-.34 2.91-5.09-.32-5.48zM742.93 501.09c-120.04 32.66-188.25 10.11-258.48 18.76-3.22.4-3.55 5.15-.32 5.48 73.81 7.62 236.7 48.95 268.95-3.8 6.63-10.83 2.11-23.77-10.15-20.44zM213.64 425.64c-24.41-35.84-44.36-75.93-59.8-120.03-46.58 13.62-94.27 33.29-142.8 59.03C4.76 367.97.91 374.19.72 381.28c-.18 7.09 3.34 13.5 9.44 17.15 93.98 56.3 185.87 88.51 273.55 95.97-26.11-15.96-50.05-39.35-70.07-68.76zM82.7 305.87c21.49-8.6 42.8-16 63.92-22.2-7.55-24.57-13.77-50.31-18.66-77.17-24.27-3.03-49.4-4.99-75.38-5.85-.23-.01-.45-.01-.68-.01-6.81 0-12.95 3.43-16.53 9.27-3.69 6.03-3.85 13.33-.42 19.53 15.09 27.28 31.02 52.76 47.75 76.43zM313.63 484.22c14.57 6.44 29.49 10.05 43.95 10.8-35.39-25.36-63.2-68.39-79.22-123.2-20.64-70.59-27.54-148.45-20.73-232.47-27.84-17.59-58.03-34.06-90.53-49.34-6.27-2.95-13.45-2.38-19.21 1.53-5.74 3.9-8.92 10.35-8.49 17.25 7.56 121.91 38.94 224.16 93.25 303.91 22.77 33.44 50.78 58.17 80.98 71.52zM382.92 85.19c-16.66-20.23-34.73-40.24-54.24-60.01-3.78-3.83-8.66-5.87-13.69-5.87-1.8 0-3.62.26-5.42.79-6.83 2.02-11.79 7.5-13.27 14.66-3.81 18.4-11.06 55.91-14.27 92.99 24.94 16.44 47.97 33.81 69.07 52.09 8.19-31.19 18.82-62.8 31.82-94.65zM908.96 364.64c-48.53-25.74-96.21-45.41-142.8-59.03-15.44 44.1-35.39 84.2-59.8 120.03-20.03 29.41-43.96 52.8-70.08 68.75 87.68-7.45 179.57-39.67 273.55-95.97 6.09-3.65 9.62-10.06 9.44-17.15-.18-7.08-4.04-13.3-10.31-16.63zM837.3 305.87c16.73-23.67 32.66-49.15 47.75-76.44 3.43-6.2 3.27-13.5-.42-19.53-3.57-5.84-9.72-9.27-16.53-9.27-.22 0-.45 0-.68.01-25.99.86-51.12 2.83-75.38 5.85-4.89 26.86-11.1 52.6-18.66 77.17 21.11 6.21 42.42 13.61 63.92 22.21zM641.64 371.82c-16.03 54.81-43.83 97.84-79.22 123.2 14.46-.76 29.38-4.37 43.95-10.8 30.21-13.34 58.21-38.08 80.99-71.52 54.31-79.75 85.69-182 93.25-303.91.43-6.9-2.75-13.35-8.49-17.25-5.76-3.91-12.94-4.48-19.21-1.53-32.5 15.29-62.69 31.75-90.53 49.34 6.8 84.02-.1 161.88-20.74 232.47zM637.98 127.74c-3.21-37.08-10.46-74.59-14.27-92.99-1.48-7.16-6.44-12.64-13.27-14.66-1.8-.53-3.62-.79-5.42-.79-5.04 0-9.91 2.04-13.69 5.87-19.51 19.77-37.58 39.79-54.24 60.01 13 31.85 23.62 63.47 31.82 94.65 21.09-18.27 44.13-35.65 69.07-52.09zM459.94 311.97c23.61-46.65 61.32-88.46 89.64-114.87-15.55-63.34-39.49-123.11-72.54-185.62-3.41-6.45-9.82-10.29-17.1-10.29-7.28 0-13.67 3.85-17.1 10.29-33.38 62.73-57.73 125.15-72.45 185.61 29.56 27.39 68.57 72.06 89.55 114.88z" class="st0"/><path d="M546.69 477.5c24.48-17.22 48.97-47.23 64.5-88.96 30.08-80.81 33.2-170.82 28.88-234.53-54.52 36.4-141.04 112.41-170.59 193.68-13.91 38.25-20.39 90.34-9.68 119.39 4.48 12.15 12.09 21.36 22.56 25.75 15.86 6.66 40.22 1.63 64.33-15.33zM447.72 340.6c-7.21-16.84-15.16-32.71-27.48-50.55-34.87-50.46-81.87-95.96-140.36-136.05-.61 9.45-9.14 111.51 20.81 211.29 22.78 75.9 61.71 106.82 83.05 118.76 21.47 12.01 41.1 14.84 64.15 9.11-23.35-31.82-20.45-97.15-.17-152.56z" class="st0"/><path d="M92.93 684.44 224.2 874.38h53.4V590.33h-59.74v182.72L92.28 590.97l-.44-.64H33.39v284.05h59.54zM522.34 746.68c-5.28-8.54-13.22-16.29-23.61-23.03-10.38-6.75-24.52-11.9-42-15.32l-48.64-10.01c-14.69-3.17-24.82-7.28-30.11-12.19-5.15-4.79-7.77-11.15-7.77-18.92 0-4.95 1.13-9.46 3.35-13.4 2.22-3.96 5.43-7.46 9.56-10.4 4.15-2.95 9.31-5.28 15.32-6.93 6.09-1.66 12.92-2.5 20.32-2.5 9.74 0 18.53 1.29 26.11 3.84 7.5 2.54 13.71 6.71 18.47 12.4 4.76 5.7 7.67 13.45 8.67 23.04l.14 1.33h60.35l-.03-1.51c-.27-16.31-4.88-31.26-13.68-44.45-8.83-13.2-21.84-23.81-38.69-31.53-16.8-7.71-37.77-11.62-62.33-11.62-20.63 0-39.53 3.61-56.2 10.72-16.72 7.13-30.13 17.43-39.87 30.6-9.77 13.25-14.65 29.09-14.51 47.12.4 22 7.07 39.86 19.84 53.1 12.71 13.18 30.14 21.94 51.79 26.03l49.06 10.02c8.99 1.79 17.15 4.14 24.25 6.98 6.97 2.79 12.54 6.43 16.53 10.8 3.91 4.27 5.89 9.87 5.89 16.65 0 7.54-2.46 13.89-7.32 18.88-4.98 5.1-11.74 8.97-20.07 11.49-8.5 2.57-17.99 3.87-28.22 3.87-9.98 0-19.17-1.56-27.34-4.63-8.1-3.03-14.91-7.46-20.23-13.16-5.3-5.68-8.93-12.77-10.81-21.09l-.26-1.16h-61.5l.16 1.64c1.45 14.4 5.92 27.18 13.29 37.98 7.35 10.71 16.77 19.76 28 26.9 11.19 7.11 23.75 12.52 37.31 16.08 13.55 3.54 27.54 5.34 41.58 5.34 22.99 0 43.38-3.64 60.62-10.81 17.3-7.21 31-17.13 40.71-29.49 9.79-12.44 14.75-26.64 14.75-42.21 0-7.36-.83-15.53-2.48-24.31-1.67-8.88-5.17-17.66-10.4-26.14zM843.31 590.33l-51.18 181.66-51.73-181.66h-43.26l-51.17 181.63-51.15-181.63h-58.71l83.68 284.05h46.75l52.13-179.82 51.75 179.82h47.53l83.87-284.05zM68.89 963.92h17.9l-.5 3.66c-.18 1.41-.65 2.85-1.42 4.31-.74 1.45-1.8 2.84-3.14 4.11-1.33 1.25-2.95 2.29-4.81 3.09-1.84.78-3.98 1.17-6.37 1.17-2.57 0-5.07-.44-7.43-1.31-2.33-.82-4.45-2.28-6.3-4.34-1.88-2.08-3.39-4.96-4.5-8.57-1.14-3.66-1.72-8.36-1.72-13.98 0-6.9.87-12.51 2.6-16.67 1.7-4.08 4.01-7.07 6.89-8.88 2.89-1.84 6.17-2.77 9.75-2.77 2.95 0 5.55.64 7.74 1.89 2.2 1.26 4.04 2.98 5.47 5.09a18.59 18.59 0 0 1 2.89 7.06l.23 1.22h21.47l-.07-1.56c-.19-4.11-1.23-8.09-3.1-11.82-1.87-3.76-4.5-7.18-7.79-10.17-3.25-2.96-7.17-5.34-11.64-7.07-4.42-1.71-9.39-2.58-14.78-2.58-8.3 0-15.69 1.92-21.98 5.71-6.29 3.82-11.23 9.3-14.7 16.28-3.47 6.95-5.23 15.28-5.23 24.74 0 9.33 1.67 17.54 4.97 24.4 3.32 6.93 8.11 12.37 14.25 16.17 6.13 3.78 13.44 5.7 21.72 5.7 4.87 0 9.08-.68 12.5-2.01 3.36-1.3 6.26-3.02 8.65-5.12 1.1-.98 2.12-1.97 3.05-2.97v8.88h15.04v-48.72l-39.64-.19v15.25zM183.01 911.46c-6.2-3.76-13.6-5.66-21.98-5.66-8.4 0-15.83 1.92-22.1 5.69-6.27 3.79-11.2 9.25-14.65 16.22-3.42 6.91-5.15 15.25-5.15 24.78 0 9.47 1.71 17.76 5.08 24.63 3.43 6.93 8.34 12.34 14.58 16.06 6.23 3.74 13.71 5.64 22.24 5.64 8.45 0 15.89-1.9 22.1-5.64 6.25-3.75 11.12-9.16 14.48-16.11 3.33-6.88 5.02-15.16 5.02-24.59 0-9.57-1.71-17.92-5.08-24.82-3.41-6.98-8.31-12.43-14.54-16.2zm-11.67 67.02c-2.86 1.87-6.33 2.81-10.31 2.81-3.94 0-7.39-.95-10.28-2.82-2.87-1.85-5.15-4.87-6.76-8.97-1.66-4.21-2.5-9.86-2.5-16.79 0-7.04.84-12.82 2.51-17.18 1.61-4.24 3.89-7.37 6.77-9.31 2.9-1.94 6.35-2.92 10.26-2.92 3.9 0 7.34.98 10.23 2.92 2.86 1.95 5.12 5.07 6.71 9.28 1.64 4.32 2.47 10.12 2.47 17.21 0 6.92-.82 12.56-2.44 16.78-1.56 4.11-3.81 7.13-6.66 8.99zM245.53 970.84l-21.92-63.51H203.7l30.78 89.96h22.02l31.04-89.96h-19.92zM316.7 960.77h36.61v-17.54H316.8v-18.14h42.05l.07-17.76h-62.7v89.96h63.29v-17.91l-42.81-.06zM433.26 955.33c2.43-2.19 4.43-4.99 5.96-8.34 1.5-3.32 2.26-7.41 2.26-12.18 0-5.33-1.11-10.1-3.31-14.2-2.2-4.16-5.69-7.46-10.38-9.81-4.62-2.3-10.57-3.47-17.69-3.47h-38.18v89.94h20.48v-33.5h15.08l14.19 33.5h21.5l-16.53-37.25c2.38-1.28 4.6-2.86 6.62-4.69zm-12.49-20.1c0 3.56-1.19 6.38-3.64 8.65-2.45 2.24-5.87 3.38-10.16 3.38h-14.56v-23.54h15.84c3.69 0 6.66 1.02 9.06 3.12 2.32 2.06 3.46 4.8 3.46 8.39zM512.11 961.59l-37.43-54.26h-19.65v89.96h20.48v-56.51l39.04 56.51h18.09v-89.96h-20.53zM595.37 965.97l-18.81-58.64h-28.07v89.96h20.66v-57.96l18.21 57.96h15.95l18.36-58.28v58.28h20.71v-89.96h-28.01zM678.7 960.77h36.61v-17.54h-36.49v-18.14h42.03l.07-17.76h-62.7v89.96h63.31v-17.91l-42.83-.06zM791.72 961.59l-37.41-54.26h-19.65v89.96h20.46v-56.51l39.04 56.51h18.09v-89.96h-20.53zM820.89 925.95h26.27v71.34h20.6v-71.34h25.67v-18.62h-72.54z" class="st1"/></svg>